<svg id="Group_17" data-name="Group 17" xmlns="http://www.w3.org/2000/svg" style='width: 50px; height: 50px' viewBox="0 0 16.752 31.2">
            <defs>
                <clipPath id="clip-path">
                    <rect id="Rectangle_9" data-name="Rectangle 9"  style='width: 50px; height: 50px' fill="#707070" stroke="#707070" stroke-width="0.2" />
                </clipPath>
            </defs>
            <g id="Group_6" data-name="Group 6" clip-path="url(#clip-path)">
                <path id="Path_6" data-name="Path 6" d="M57.191,11.513a1,1,0,0,0-.008-.189.226.226,0,0,0-.231-.2.213.213,0,0,0-.242.179,1.268,1.268,0,0,0-.02.259q0,1.209,0,2.419v.252H55.7V8.37c0-.071,0-.142,0-.213-.01-.169-.1-.267-.235-.273s-.252.1-.255.277c-.007.474,0,.949,0,1.423,0,.171,0,.341,0,.512a.249.249,0,0,1-.119-.119c-.295-.612-.592-1.224-.877-1.839a.846.846,0,0,1-.062-.343c0-1.265,0-2.53,0-3.795a1.432,1.432,0,0,0-.016-.26.242.242,0,0,0-.477.01,1.385,1.385,0,0,0,0,.213c0,.223,0,.446,0,.67l-.043.006L51.469,0h-.332L48.986,4.639a7.018,7.018,0,0,1-.038-.816c0-.175-.085-.27-.224-.282s-.252.083-.273.262a2.08,2.08,0,0,0,0,.237c0,1.257,0,2.515,0,3.771a.838.838,0,0,1-.065.343c-.288.616-.586,1.226-.883,1.838a1.585,1.585,0,0,1-.106.154c0-.655,0-1.256,0-1.857a1.051,1.051,0,0,0-.01-.212.23.23,0,0,0-.237-.194.217.217,0,0,0-.237.187,1.48,1.48,0,0,0-.018.26q0,2.823,0,5.646c0,.084-.009.167-.014.26H45.784V13.97q0-1.21,0-2.42a1.185,1.185,0,0,0-.014-.236.214.214,0,0,0-.237-.186.221.221,0,0,0-.235.19.743.743,0,0,0-.008.142q0,6.121,0,12.241c0,.3.06.362.359.365.2,0,.39,0,.585,0v6.894h10V24.066c.231,0,.45.005.669,0s.28-.081.29-.29c0-.055,0-.111,0-.166ZM51.3.82l2.211,4.829H49.1L51.3.82M48.96,6.187h4.67V7.78c-.158.054-4.21.077-4.67.021Zm-1.345,4.724c.381-.8.768-1.594,1.143-2.394A.321.321,0,0,1,49.1,8.3q2.2.011,4.409,0a.3.3,0,0,1,.324.2c.385.822.782,1.639,1.175,2.458a.756.756,0,0,1,.032.114H47.572a.949.949,0,0,1,.042-.161m-.2.677h7.78v2.633H54.053a.749.749,0,0,0,.508-.788c-.014-.331,0-.664,0-1a.669.669,0,0,0-1.338-.032c-.016.347-.01.7-.007,1.043a.719.719,0,0,0,.582.773H52.275c.07-.037.12-.06.167-.088a.647.647,0,0,0,.353-.554c.009-.395.01-.79,0-1.185a.645.645,0,0,0-.614-.635.632.632,0,0,0-.713.574c-.03.392-.025.789-.018,1.183a.728.728,0,0,0,.571.706H50.54a2.065,2.065,0,0,0,.372-.306.675.675,0,0,0,.118-.373c.015-.371.009-.743,0-1.115a.65.65,0,0,0-.673-.67.64.64,0,0,0-.661.678c0,.348.008.7,0,1.043a.671.671,0,0,0,.436.69l.123.056H48.721c.084-.04.133-.06.179-.086a.649.649,0,0,0,.371-.59c0-.379.007-.759,0-1.138a.67.67,0,0,0-1.34-.008c-.009.387-.009.775,0,1.161.009.334.214.527.557.652H47.41Zm6.3,1.383c0-.166-.005-.331,0-.5.006-.145.086-.235.19-.222a.2.2,0,0,1,.175.217c0,.338,0,.677,0,1.015,0,.122-.053.223-.193.218s-.169-.1-.172-.214c0-.173,0-.346,0-.519Zm-1.76-.478c0-.121.039-.229.176-.236s.186.107.189.223q.009.507,0,1.014c0,.106-.043.211-.175.211s-.187-.1-.189-.222c0-.173,0-.346,0-.519,0-.158,0-.315,0-.472M50.365,13.7c-.142,0-.179-.109-.181-.228,0-.165,0-.33,0-.495v-.495c0-.124.044-.231.178-.232s.185.108.186.229c0,.33,0,.66,0,.99,0,.118-.041.23-.181.231m-1.586-.217c0,.121-.047.224-.19.218s-.167-.107-.168-.216c0-.338,0-.676,0-1.014a.2.2,0,0,1,.167-.223c.1-.016.187.083.193.221.007.172,0,.345,0,.519h0c0,.165,0,.33,0,.495m0,11.57q0,2.324,0,4.648c0,.055.011.123-.016.162-.04.057-.11.131-.167.13s-.131-.075-.162-.135a.49.49,0,0,1-.016-.21q0-1.15,0-2.3,0-1.115,0-2.229c0-.063,0-.127,0-.189.009-.108.064-.181.179-.18s.166.079.177.185a.98.98,0,0,1,0,.118M50.366,30a.263.263,0,0,1-.167-.13.482.482,0,0,1-.016-.21q0-1.138,0-2.277t0-2.254a1.679,1.679,0,0,1,.007-.213.176.176,0,0,1,.35,0,.908.908,0,0,1,.009.165q0,2.277,0,4.554a.683.683,0,0,1-.028.256.2.2,0,0,1-.154.111m1.947-4.917q0,2.3,0,4.6c0,.234-.057.325-.188.325s-.181-.089-.181-.327q0-1.161,0-2.323c0-.751,0-1.5,0-2.252a.572.572,0,0,1,.024-.232.213.213,0,0,1,.158-.107.223.223,0,0,1,.156.11.447.447,0,0,1,.03.208m1.74,4.788a.283.283,0,0,1-.168.133c-.1.018-.157-.062-.171-.157a1.447,1.447,0,0,1-.009-.213q0-1.139,0-2.277t0-2.254a.466.466,0,0,1,.018-.209.249.249,0,0,1,.168-.127c.057,0,.132.072.164.131a.482.482,0,0,1,.019.21q0,2.277,0,4.554a.456.456,0,0,1-.021.209m1.669.639H54.132a.838.838,0,0,0,.43-.856c-.01-1.557,0-3.115,0-4.672a.671.671,0,0,0-1.331-.172,1.953,1.953,0,0,0-.016.307c0,1.518,0,3.036,0,4.554a.829.829,0,0,0,.439.839H52.338c.064-.043.1-.071.145-.1a.65.65,0,0,0,.314-.576q0-.759,0-1.518c0-1.123,0-2.246,0-3.368a.665.665,0,0,0-.9-.659.627.627,0,0,0-.426.524,2.282,2.282,0,0,0-.023.306q0,2.218,0,4.435c0,.047,0,.095,0,.142a.826.826,0,0,0,.441.817h-1.34l.159-.094a.648.648,0,0,0,.332-.589q0-2.455,0-4.91a.658.658,0,0,0-.674-.677.647.647,0,0,0-.659.663c0,1.653,0,3.305,0,4.957a.742.742,0,0,0,.428.645H48.805c.059-.04.082-.056.105-.07a.708.708,0,0,0,.363-.669c-.007-1.154,0-2.308,0-3.463,0-.451,0-.9,0-1.352a.671.671,0,1,0-1.341-.01c0,1.621,0,3.242,0,4.862a.738.738,0,0,0,.462.706H46.754V24.086h8.967Zm.949-6.947H45.8v-8.8H56.671Z" transform="translate(-43.142)" fill="#707070" stroke="#707070" stroke-width="0.2" />
                <path id="Path_7" data-name="Path 7" d="M112.351,342.786a2.9,2.9,0,1,1,0,5.8,2.9,2.9,0,1,1,0-5.8m1.731,4.557a2.4,2.4,0,1,0-3.55-3.231,2.4,2.4,0,0,0,3.558,3.224Z" transform="translate(-104.25 -326.522)" fill="#707070" stroke="#707070" stroke-width="0.2" />
                <path id="Path_8" data-name="Path 8" d="M167.453,363.53a.5.5,0,0,1-.527-.168c-.411-.4-.835-.794-1.262-1.18a.536.536,0,0,1-.2-.474c.032-.52.036-1.041.053-1.562a.772.772,0,0,1,.03-.208.192.192,0,0,1,.239-.144.416.416,0,0,1,.208.157.373.373,0,0,1,.023.206c-.016.5-.042.994-.047,1.49a.413.413,0,0,0,.138.253c.392.379.784.758,1.193,1.117a.416.416,0,0,1,.144.519Z" transform="translate(-157.614 -342.716)" fill="#707070" stroke="#707070" stroke-width="0.2" />
                <path id="Path_9" data-name="Path 9" d="M16.365,647.074H.378a.275.275,0,0,0-.031-.007c-.194-.018-.341-.121-.347-.242s.123-.242.325-.268a.26.26,0,0,0,.03-.007H16.388a.7.7,0,0,1,.231.07.313.313,0,0,1,.133.156v.073l-.018.033a.371.371,0,0,1-.3.182l-.07.01" transform="translate(0 -615.874)" fill="#707070" stroke="#707070" stroke-width="0.2" />
            </g>
        </svg>
