 <svg id="Group_15" data-name="Group 15" xmlns="http://www.w3.org/2000/svg" style='width: 50px; height: 50px' viewBox="0 0 29.005 28.08">
            <defs>
                <clipPath id="clip-path">
                    <rect id="Rectangle_7" data-name="Rectangle 7" style='width: 50px; height: 50px'  fill="#707070" stroke="#707070" stroke-width="0.3" />
                </clipPath>
            </defs>
            <g id="Group_2" data-name="Group 2" clip-path="url(#clip-path)">
                <path id="Path_1" data-name="Path 1" d="M27.647,27.481h.787a2.424,2.424,0,0,1,.315.009.291.291,0,0,1,.012.576,1.684,1.684,0,0,1-.279.013H.538c-.082,0-.164,0-.245,0a.295.295,0,1,1,.013-.59c.362-.007.724,0,1.085,0h.577c.046-.672.09-1.3.132-1.926q.271-3.983.541-7.965.227-3.372.45-6.743c.024-.361.043-.722.073-1.083.025-.3.121-.39.421-.394.467-.007.934,0,1.4,0h.364c.125-.639.2-1.244.368-1.822a17.074,17.074,0,0,1,.8-2.265A8.539,8.539,0,0,1,9.685,1.532,9.167,9.167,0,0,1,17.5.411a8.677,8.677,0,0,1,5.54,4.753,11.57,11.57,0,0,1,1.138,3.982c.006.057.018.112.036.225h.62c.362,0,.724,0,1.085,0,.336.006.412.072.438.408.093,1.222.178,2.445.266,3.667q.228,3.161.457,6.321.264,3.65.528,7.3c.009.125.024.25.04.413m-16-.032c0-.149,0-.275,0-.4a16.841,16.841,0,0,1,.671-5.221,6.993,6.993,0,0,1,2.058-3.356c.387-.329.469-.328.862.007a6.827,6.827,0,0,1,1.988,3.159,16.267,16.267,0,0,1,.724,5.387c0,.137,0,.273,0,.423h9.07L25.763,10H21.5v.393c0,.817,0,1.634,0,2.452,0,.412-.081.5-.49.5q-6.145,0-12.29,0c-.4,0-.466-.073-.468-.474,0-.829,0-1.658,0-2.487V10h-4.5L2.566,27.45ZM6.543,6.891a68.953,68.953,0,0,1,16.488,0A8.344,8.344,0,0,0,15.315.625,8.437,8.437,0,0,0,6.543,6.891m14.336,5.824v-.39q0-1.173,0-2.347c0-.57.038-.607.623-.608s1.167,0,1.751,0c.1,0,.2-.016.361-.029-.092-.511-.19-.987-.258-1.468a.4.4,0,0,0-.43-.388c-1.931-.142-3.86-.339-5.794-.43a59.365,59.365,0,0,0-8.114.2c-.767.069-1.533.149-2.3.23-.391.042-.395.047-.474.417-.07.331-.134.663-.19,1a4.525,4.525,0,0,0-.028.468h.425c.63,0,1.261,0,1.891,0,.438,0,.5.067.5.511,0,.817,0,1.634,0,2.452,0,.124.011.248.018.385Zm-6.113,6.177c-.186.2-.365.381-.53.574a7.543,7.543,0,0,0-1.475,3.061,17.113,17.113,0,0,0-.5,4.647,2.559,2.559,0,0,0,.036.279H17.29a1.7,1.7,0,0,0,.034-.217A17.8,17.8,0,0,0,17,23.2a8.87,8.87,0,0,0-1.278-3.269,4.387,4.387,0,0,0-.955-1.038" transform="translate(0.001 0)" fill="#707070" stroke="#707070" stroke-width="0.3" />
                <path id="Path_2" data-name="Path 2" d="M153.689,117.936c0-.349-.006-.7,0-1.048.007-.3.1-.394.4-.4.489-.007.978-.007,1.467,0,.274,0,.387.112.39.381q.012,1.066,0,2.131c0,.277-.1.369-.391.374q-.733.013-1.467,0c-.318,0-.394-.082-.4-.394-.007-.349,0-.7,0-1.048m1.62-.808h-1v1.627h1Z" transform="translate(-142.924 -108.327)" fill="#707070" stroke="#707070" stroke-width="0.3" />
                <path id="Path_3" data-name="Path 3" d="M197.376,117.952c0,.349.007.7,0,1.048-.008.291-.088.374-.38.379q-.75.013-1.5,0c-.283-.005-.371-.1-.374-.388q-.011-1.048,0-2.1c0-.3.1-.4.4-.4.477-.007.954-.006,1.431,0,.332,0,.417.087.424.413.007.349,0,.7,0,1.048m-1.62.8h.99v-1.627h-.99Z" transform="translate(-181.449 -108.329)" fill="#707070" stroke="#707070" stroke-width="0.3" />
                <path id="Path_4" data-name="Path 4" d="M239.04,117.968c0,.326,0,.652,0,.978s-.085.424-.406.429q-.733.011-1.466,0c-.3-.005-.379-.086-.382-.375q-.01-1.065,0-2.13c0-.286.094-.377.38-.382.489-.008.978-.008,1.466,0,.3,0,.4.1.407.4.008.361,0,.722,0,1.082m-.633-.836h-1v1.619h1Z" transform="translate(-220.198 -108.325)" fill="#707070" stroke="#707070" stroke-width="0.3" />
            </g>
        </svg>
